{
	"asset":{
		"generator":"Khronos glTF Blender I/O v3.5.30",
		"version":"2.0"
	},
	"extensionsUsed":[
		"KHR_materials_unlit"
	],
	"scene":0,
	"scenes":[
		{
			"name":"Scene",
			"nodes":[
				0,
				1,
				2,
				3,
				4,
				5
			]
		}
	],
	"nodes":[
		{
			"mesh":0,
			"name":"D",
			"rotation":[
				0.7071068286895752,
				0,
				0,
				0.7071068286895752
			],
			"scale":[
				4.549088001251221,
				4.549088001251221,
				4.549088001251221
			],
			"translation":[
				2.9246657504700124e-06,
				-1.340000033378601,
				0.8525923490524292
			]
		},
		{
			"mesh":1,
			"name":"O",
			"rotation":[
				0.3535534143447876,
				0.6123724579811096,
				-0.6123725175857544,
				0.3535534143447876
			],
			"scale":[
				4.549088001251221,
				4.549088001251221,
				4.549088001251221
			],
			"translation":[
				0.5836901068687439,
				-1.340000033378601,
				-0.15003585815429688
			]
		},
		{
			"mesh":2,
			"name":"\u2229",
			"rotation":[
				0.6123724579811096,
				0.3535533547401428,
				-0.3535533845424652,
				0.6123725175857544
			],
			"scale":[
				4.549088001251221,
				4.549088001251221,
				4.549088001251221
			],
			"translation":[
				-0.5529122948646545,
				-1.340000033378601,
				-0.15266364812850952
			]
		},
		{
			"mesh":3,
			"name":"DBevel",
			"rotation":[
				0.7071068286895752,
				0,
				0,
				0.7071068286895752
			],
			"scale":[
				4.549088001251221,
				4.549088001251221,
				4.549088001251221
			],
			"translation":[
				2.9246657504700124e-06,
				-1.340000033378601,
				0.8525923490524292
			]
		},
		{
			"mesh":4,
			"name":"OBevel",
			"rotation":[
				0.3535534143447876,
				0.6123724579811096,
				-0.6123725175857544,
				0.3535534143447876
			],
			"scale":[
				4.549088001251221,
				4.549088001251221,
				4.549088001251221
			],
			"translation":[
				0.5836901068687439,
				-1.340000033378601,
				-0.15003585815429688
			]
		},
		{
			"mesh":5,
			"name":"\u2229Bevel",
			"rotation":[
				0.6123724579811096,
				0.3535533547401428,
				-0.3535533845424652,
				0.6123725175857544
			],
			"scale":[
				4.549088001251221,
				4.549088001251221,
				4.549088001251221
			],
			"translation":[
				-0.5529122948646545,
				-1.340000033378601,
				-0.15266364812850952
			]
		}
	],
	"materials":[
		{
			"doubleSided":true,
			"extensions":{
				"KHR_materials_unlit":{}
			},
			"name":"O.002",
			"pbrMetallicRoughness":{
				"metallicFactor":0,
				"roughnessFactor":0.9
			}
		},
		{
			"doubleSided":true,
			"extensions":{
				"KHR_materials_unlit":{}
			},
			"name":"D",
			"pbrMetallicRoughness":{
				"metallicFactor":0,
				"roughnessFactor":0.9
			}
		},
		{
			"doubleSided":true,
			"extensions":{
				"KHR_materials_unlit":{}
			},
			"name":"O.001",
			"pbrMetallicRoughness":{
				"metallicFactor":0,
				"roughnessFactor":0.9
			}
		},
		{
			"extensions":{
				"KHR_materials_unlit":{}
			},
			"name":"Outline",
			"pbrMetallicRoughness":{
				"metallicFactor":0,
				"roughnessFactor":0.9
			}
		}
	],
	"meshes":[
		{
			"name":"D",
			"primitives":[
				{
					"attributes":{
						"POSITION":0,
						"TEXCOORD_0":1,
						"NORMAL":2
					},
					"indices":3,
					"material":0
				}
			]
		},
		{
			"name":"D.001",
			"primitives":[
				{
					"attributes":{
						"POSITION":4,
						"TEXCOORD_0":5,
						"NORMAL":6
					},
					"indices":7,
					"material":1
				}
			]
		},
		{
			"name":"D.002",
			"primitives":[
				{
					"attributes":{
						"POSITION":8,
						"TEXCOORD_0":9,
						"NORMAL":10
					},
					"indices":11,
					"material":2
				}
			]
		},
		{
			"name":"D.003",
			"primitives":[
				{
					"attributes":{
						"POSITION":12,
						"TEXCOORD_0":13,
						"NORMAL":14
					},
					"indices":15,
					"material":3
				}
			]
		},
		{
			"name":"D.004",
			"primitives":[
				{
					"attributes":{
						"POSITION":16,
						"TEXCOORD_0":17,
						"NORMAL":18
					},
					"indices":19,
					"material":3
				}
			]
		},
		{
			"name":"D.005",
			"primitives":[
				{
					"attributes":{
						"POSITION":20,
						"TEXCOORD_0":21,
						"NORMAL":22
					},
					"indices":23,
					"material":3
				}
			]
		}
	],
	"accessors":[
		{
			"bufferView":0,
			"componentType":5126,
			"count":756,
			"max":[
				0.19304347038269043,
				0.019999999552965164,
				0
			],
			"min":[
				-0.1939130425453186,
				-0.019999999552965164,
				-0.5878260731697083
			],
			"type":"VEC3"
		},
		{
			"bufferView":1,
			"componentType":5126,
			"count":756,
			"type":"VEC2"
		},
		{
			"bufferView":2,
			"componentType":5126,
			"count":756,
			"type":"VEC3"
		},
		{
			"bufferView":3,
			"componentType":5123,
			"count":2256,
			"type":"SCALAR"
		},
		{
			"bufferView":4,
			"componentType":5126,
			"count":948,
			"max":[
				0.19869564473628998,
				0.019999999552965164,
				0
			],
			"min":[
				-0.19869565963745117,
				-0.019999999552965164,
				-0.5878260731697083
			],
			"type":"VEC3"
		},
		{
			"bufferView":5,
			"componentType":5126,
			"count":948,
			"type":"VEC2"
		},
		{
			"bufferView":6,
			"componentType":5126,
			"count":948,
			"type":"VEC3"
		},
		{
			"bufferView":7,
			"componentType":5123,
			"count":2832,
			"type":"SCALAR"
		},
		{
			"bufferView":8,
			"componentType":5126,
			"count":802,
			"max":[
				0.19304347038269043,
				0.019999999552965164,
				0
			],
			"min":[
				-0.19304348528385162,
				-0.019999999552965164,
				-0.5878260731697083
			],
			"type":"VEC3"
		},
		{
			"bufferView":9,
			"componentType":5126,
			"count":802,
			"type":"VEC2"
		},
		{
			"bufferView":10,
			"componentType":5126,
			"count":802,
			"type":"VEC3"
		},
		{
			"bufferView":11,
			"componentType":5123,
			"count":2388,
			"type":"SCALAR"
		},
		{
			"bufferView":12,
			"componentType":5126,
			"count":2090,
			"max":[
				0.2130434662103653,
				0.02499999850988388,
				0.020000001415610313
			],
			"min":[
				-0.21391303837299347,
				-0.02499999850988388,
				-0.6078260540962219
			],
			"type":"VEC3"
		},
		{
			"bufferView":13,
			"componentType":5126,
			"count":2090,
			"type":"VEC2"
		},
		{
			"bufferView":14,
			"componentType":5126,
			"count":2090,
			"type":"VEC3"
		},
		{
			"bufferView":15,
			"componentType":5123,
			"count":11280,
			"type":"SCALAR"
		},
		{
			"bufferView":16,
			"componentType":5126,
			"count":2618,
			"max":[
				0.21869564056396484,
				0.02499999850988388,
				0.020000001415610313
			],
			"min":[
				-0.21869565546512604,
				-0.02499999850988388,
				-0.6078260540962219
			],
			"type":"VEC3"
		},
		{
			"bufferView":17,
			"componentType":5126,
			"count":2618,
			"type":"VEC2"
		},
		{
			"bufferView":18,
			"componentType":5126,
			"count":2618,
			"type":"VEC3"
		},
		{
			"bufferView":19,
			"componentType":5123,
			"count":14160,
			"type":"SCALAR"
		},
		{
			"bufferView":20,
			"componentType":5126,
			"count":2211,
			"max":[
				0.2130434662103653,
				0.02499999850988388,
				0.019999999552965164
			],
			"min":[
				-0.2130434811115265,
				-0.02499999850988388,
				-0.6078260540962219
			],
			"type":"VEC3"
		},
		{
			"bufferView":21,
			"componentType":5126,
			"count":2211,
			"type":"VEC2"
		},
		{
			"bufferView":22,
			"componentType":5126,
			"count":2211,
			"type":"VEC3"
		},
		{
			"bufferView":23,
			"componentType":5123,
			"count":12000,
			"type":"SCALAR"
		}
	],
	"bufferViews":[
		{
			"buffer":0,
			"byteLength":9072,
			"byteOffset":0,
			"target":34962
		},
		{
			"buffer":0,
			"byteLength":6048,
			"byteOffset":9072,
			"target":34962
		},
		{
			"buffer":0,
			"byteLength":9072,
			"byteOffset":15120,
			"target":34962
		},
		{
			"buffer":0,
			"byteLength":4512,
			"byteOffset":24192,
			"target":34963
		},
		{
			"buffer":0,
			"byteLength":11376,
			"byteOffset":28704,
			"target":34962
		},
		{
			"buffer":0,
			"byteLength":7584,
			"byteOffset":40080,
			"target":34962
		},
		{
			"buffer":0,
			"byteLength":11376,
			"byteOffset":47664,
			"target":34962
		},
		{
			"buffer":0,
			"byteLength":5664,
			"byteOffset":59040,
			"target":34963
		},
		{
			"buffer":0,
			"byteLength":9624,
			"byteOffset":64704,
			"target":34962
		},
		{
			"buffer":0,
			"byteLength":6416,
			"byteOffset":74328,
			"target":34962
		},
		{
			"buffer":0,
			"byteLength":9624,
			"byteOffset":80744,
			"target":34962
		},
		{
			"buffer":0,
			"byteLength":4776,
			"byteOffset":90368,
			"target":34963
		},
		{
			"buffer":0,
			"byteLength":25080,
			"byteOffset":95144,
			"target":34962
		},
		{
			"buffer":0,
			"byteLength":16720,
			"byteOffset":120224,
			"target":34962
		},
		{
			"buffer":0,
			"byteLength":25080,
			"byteOffset":136944,
			"target":34962
		},
		{
			"buffer":0,
			"byteLength":22560,
			"byteOffset":162024,
			"target":34963
		},
		{
			"buffer":0,
			"byteLength":31416,
			"byteOffset":184584,
			"target":34962
		},
		{
			"buffer":0,
			"byteLength":20944,
			"byteOffset":216000,
			"target":34962
		},
		{
			"buffer":0,
			"byteLength":31416,
			"byteOffset":236944,
			"target":34962
		},
		{
			"buffer":0,
			"byteLength":28320,
			"byteOffset":268360,
			"target":34963
		},
		{
			"buffer":0,
			"byteLength":26532,
			"byteOffset":296680,
			"target":34962
		},
		{
			"buffer":0,
			"byteLength":17688,
			"byteOffset":323212,
			"target":34962
		},
		{
			"buffer":0,
			"byteLength":26532,
			"byteOffset":340900,
			"target":34962
		},
		{
			"buffer":0,
			"byteLength":24000,
			"byteOffset":367432,
			"target":34963
		}
	],
	"buffers":[
		{
			"byteLength":391432,
			"uri":"data:application/octet-stream;base64,"
		}
	]
}
