{
	"asset":{
		"generator":"Khronos glTF Blender I/O v3.5.30",
		"version":"2.0"
	},
	"scene":0,
	"scenes":[
		{
			"name":"Scene",
			"nodes":[
				0
			]
		}
	],
	"nodes":[
		{
			"mesh":0,
			"name":"craft_speederC"
		}
	],
	"materials":[
		{
			"name":"metalRed",
			"pbrMetallicRoughness":{
				"baseColorFactor":[
					0,
					0.9130984544754028,
					0.3564002811908722,
					1
				]
			}
		},
		{
			"name":"metalDark",
			"pbrMetallicRoughness":{
				"baseColorFactor":[
					0.2383970320224762,
					0.02415718510746956,
					1,
					1
				]
			}
		},
		{
			"name":"metal",
			"pbrMetallicRoughness":{
				"baseColorFactor":[
					0,
					0.9130984544754028,
					0.3564002811908722,
					1
				]
			}
		},
		{
			"name":"dark",
			"pbrMetallicRoughness":{
				"baseColorFactor":[
					0.002067664172500372,
					0,
					0.021978987380862236,
					1
				],
				"metallicFactor":0
			}
		}
	],
	"meshes":[
		{
			"name":"Mesh craft_speederC",
			"primitives":[
				{
					"attributes":{
						"POSITION":0,
						"TEXCOORD_0":1,
						"NORMAL":2
					},
					"indices":3,
					"material":0
				},
				{
					"attributes":{
						"POSITION":4,
						"TEXCOORD_0":5,
						"NORMAL":6
					},
					"indices":7,
					"material":1
				},
				{
					"attributes":{
						"POSITION":8,
						"TEXCOORD_0":9,
						"NORMAL":10
					},
					"indices":11,
					"material":2
				},
				{
					"attributes":{
						"POSITION":12,
						"TEXCOORD_0":13,
						"NORMAL":14
					},
					"indices":15,
					"material":3
				}
			]
		}
	],
	"accessors":[
		{
			"bufferView":0,
			"componentType":5126,
			"count":54,
			"max":[
				1.0688765048980713,
				1.2531987428665161,
				0.949468731880188
			],
			"min":[
				-0.9863710403442383,
				-0.7414757609367371,
				-0.22651469707489014
			],
			"type":"VEC3"
		},
		{
			"bufferView":1,
			"componentType":5126,
			"count":54,
			"type":"VEC2"
		},
		{
			"bufferView":2,
			"componentType":5126,
			"count":54,
			"type":"VEC3"
		},
		{
			"bufferView":3,
			"componentType":5123,
			"count":90,
			"type":"SCALAR"
		},
		{
			"bufferView":4,
			"componentType":5126,
			"count":232,
			"max":[
				0.7302529811859131,
				1.2543796300888062,
				0.8229355216026306
			],
			"min":[
				-0.898349404335022,
				-0.4142163395881653,
				-0.40559858083724976
			],
			"type":"VEC3"
		},
		{
			"bufferView":5,
			"componentType":5126,
			"count":232,
			"type":"VEC2"
		},
		{
			"bufferView":6,
			"componentType":5126,
			"count":232,
			"type":"VEC3"
		},
		{
			"bufferView":7,
			"componentType":5123,
			"count":432,
			"type":"SCALAR"
		},
		{
			"bufferView":8,
			"componentType":5126,
			"count":128,
			"max":[
				1.0688765048980713,
				1.3879435062408447,
				0.681304931640625
			],
			"min":[
				-1.0762187242507935,
				-0.640981912612915,
				-0.40559858083724976
			],
			"type":"VEC3"
		},
		{
			"bufferView":9,
			"componentType":5126,
			"count":128,
			"type":"VEC2"
		},
		{
			"bufferView":10,
			"componentType":5126,
			"count":128,
			"type":"VEC3"
		},
		{
			"bufferView":11,
			"componentType":5123,
			"count":240,
			"type":"SCALAR"
		},
		{
			"bufferView":12,
			"componentType":5126,
			"count":82,
			"max":[
				0.7707172632217407,
				1.1556485891342163,
				1.0163590908050537
			],
			"min":[
				-0.773276686668396,
				-0.714577853679657,
				-0.30594080686569214
			],
			"type":"VEC3"
		},
		{
			"bufferView":13,
			"componentType":5126,
			"count":82,
			"type":"VEC2"
		},
		{
			"bufferView":14,
			"componentType":5126,
			"count":82,
			"type":"VEC3"
		},
		{
			"bufferView":15,
			"componentType":5123,
			"count":114,
			"type":"SCALAR"
		}
	],
	"bufferViews":[
		{
			"buffer":0,
			"byteLength":648,
			"byteOffset":0,
			"target":34962
		},
		{
			"buffer":0,
			"byteLength":432,
			"byteOffset":648,
			"target":34962
		},
		{
			"buffer":0,
			"byteLength":648,
			"byteOffset":1080,
			"target":34962
		},
		{
			"buffer":0,
			"byteLength":180,
			"byteOffset":1728,
			"target":34963
		},
		{
			"buffer":0,
			"byteLength":2784,
			"byteOffset":1908,
			"target":34962
		},
		{
			"buffer":0,
			"byteLength":1856,
			"byteOffset":4692,
			"target":34962
		},
		{
			"buffer":0,
			"byteLength":2784,
			"byteOffset":6548,
			"target":34962
		},
		{
			"buffer":0,
			"byteLength":864,
			"byteOffset":9332,
			"target":34963
		},
		{
			"buffer":0,
			"byteLength":1536,
			"byteOffset":10196,
			"target":34962
		},
		{
			"buffer":0,
			"byteLength":1024,
			"byteOffset":11732,
			"target":34962
		},
		{
			"buffer":0,
			"byteLength":1536,
			"byteOffset":12756,
			"target":34962
		},
		{
			"buffer":0,
			"byteLength":480,
			"byteOffset":14292,
			"target":34963
		},
		{
			"buffer":0,
			"byteLength":984,
			"byteOffset":14772,
			"target":34962
		},
		{
			"buffer":0,
			"byteLength":656,
			"byteOffset":15756,
			"target":34962
		},
		{
			"buffer":0,
			"byteLength":984,
			"byteOffset":16412,
			"target":34962
		},
		{
			"buffer":0,
			"byteLength":228,
			"byteOffset":17396,
			"target":34963
		}
	],
	"buffers":[
		{
			"byteLength":17624,
			"uri":"data:application/octet-stream;base64,"
		}
	]
}
