<?xml version="1.0" encoding="UTF-8" standalone="no"?>
<!-- Created with Inkscape (http://www.inkscape.org/) -->

<svg
   width="157.25148mm"
   height="75.242111mm"
   viewBox="0 0 31.889272 16.221388"
   version="1.1"
   id="svg1"
   xmlns="http://www.w3.org/2000/svg"
   xmlns:svg="http://www.w3.org/2000/svg">
  <defs
     id="defs1">
    <filter
       style="color-interpolation-filters:sRGB"
       id="filter18"
       x="0"
       y="0"
       width="1"
       height="1">
      <feTurbulence
         type="fractalNoise"
         baseFrequency="6.81115 4.64396"
         numOctaves="2"
         seed="1"
         result="turbulence"
         id="feTurbulence17" />
      <feComposite
         in="SourceGraphic"
         in2="turbulence"
         operator="in"
         result="composite1"
         id="feComposite17" />
      <feColorMatrix
         values="1 0 0 0 0 0 1 0 0 0 0 0 1 0 0 0 0 0 3.67273 -0.151515 "
         result="color"
         id="feColorMatrix17" />
      <feFlood
         flood-opacity="1"
         flood-color="rgb(186,165,69)"
         result="flood"
         id="feFlood17" />
      <feMerge
         result="merge"
         id="feMerge18">
        <feMergeNode
           in="flood"
           id="feMergeNode17" />
        <feMergeNode
           in="color"
           id="feMergeNode18" />
      </feMerge>
      <feComposite
         in2="SourceGraphic"
         operator="in"
         result="composite2"
         id="feComposite18" />
    </filter>
  </defs>
  <g
     id="layer1"
     transform="translate(-91.914553,-139.19745)"
     style="filter:url(#filter18)">
    <path
       d="m 123.0283,140.71885 c 1.34106,1.67396 2.52902,4.21767 1.20295,6.23588 -1.32608,2.01823 -7.07816,0.34913 -10.91267,1.98425 -2.83697,1.20973 -1.48949,3.24468 -2.39386,4.68616 -1.54933,2.46947 -1.93089,1.21055 -1.93089,1.21055 l -3.10761,-0.22747 c 0,0 -11.286535,1.72538 -13.733465,0.14172 -2.035655,-1.31748 -1.436785,-7.77431 0.80197,-7.79509 3.73936,-0.0347 13.334805,0.70599 14.335365,-0.85038 1.00057,-1.55638 0.64643,-3.79697 1.90467,-5.24391 1.25824,-1.44693 11.69565,-2.81033 13.83354,-0.14171 z"
       style="display:inline;fill:#e8c054;fill-opacity:1;stroke-width:15.8741;stroke-linecap:round;stroke-linejoin:round;stroke-opacity:0.497423"
       id="path302" />
  </g>
</svg>
