<?xml version="1.0" encoding="UTF-8" standalone="no"?>
<!-- Created with Inkscape (http://www.inkscape.org/) -->

<svg
   width="666.65833mm"
   height="582.41125mm"
   viewBox="0 0 5.0393098 23.231971"
   version="1.1"
   id="svg1"
   xmlns="http://www.w3.org/2000/svg"
   xmlns:svg="http://www.w3.org/2000/svg">
  <defs
     id="defs1">
    <filter
       style="color-interpolation-filters:sRGB"
       id="filter58"
       x="0"
       y="0"
       width="1"
       height="1">
      <feTurbulence
         type="fractalNoise"
         baseFrequency="9.59752 9.90712"
         numOctaves="1"
         seed="1"
         result="turbulence"
         id="feTurbulence57" />
      <feComposite
         in="SourceGraphic"
         in2="turbulence"
         operator="in"
         result="composite1"
         id="feComposite57" />
      <feColorMatrix
         values="1 0 0 0 0 0 1 0 0 0 0 0 1 0 0 0 0 0 3.82121 -0.1 "
         result="color"
         id="feColorMatrix57" />
      <feFlood
         flood-opacity="1"
         flood-color="rgb(200,105,116)"
         result="flood"
         id="feFlood57" />
      <feMerge
         result="merge"
         id="feMerge58">
        <feMergeNode
           in="flood"
           id="feMergeNode57" />
        <feMergeNode
           in="color"
           id="feMergeNode58" />
      </feMerge>
      <feComposite
         in2="SourceGraphic"
         operator="in"
         result="composite2"
         id="feComposite58" />
    </filter>
  </defs>
  <g
     id="layer1"
     transform="translate(-139.68442,-147.40517)"
     style="filter:url(#filter58)">
    <path
       id="path65"
       style="display:inline;fill:#ff7175;fill-opacity:0.996078;stroke-width:5.51237;stroke-linecap:round;stroke-linejoin:round;stroke-opacity:0.497423;filter:url(#filter12)"
       d="m 136.98867,169.4657 c -2.97748,-5.24465 -8.2716,-18.54758 -7.18372,-19.49088 3.91994,-3.39899 23.36614,0.49265 24.29055,3.95597 0.35862,1.34363 -8.71584,12.04225 -13.20704,16.0927 -1.13294,1.02176 -3.17366,0.72126 -3.89979,-0.55779 z" />
    <path
       id="path150"
       style="display:inline;fill:#21d8c6;fill-opacity:0.996078;stroke-width:12;stroke-linecap:round;stroke-linejoin:round;stroke-opacity:0.497423"
       d="m 85.546448,169.73243 c 3.091136,12.98612 6.236932,44.35889 3.417797,45.56862 -10.158117,4.35899 -48.287599,-17.23201 -48.162958,-25.08487 0.04836,-3.04659 25.236262,-19.0307 36.967009,-24.35003 2.959179,-1.34185 7.024296,0.69927 7.778152,3.86628 z"
       transform="matrix(-0.44010076,0.12405214,-0.12405214,-0.44010076,193.52119,232.16711)" />
  </g>
</svg>
