<?xml version="1.0" encoding="UTF-8" standalone="no"?>
<!-- Created with Inkscape (http://www.inkscape.org/) -->

<svg
   width="0.57183832mm"
   height="0.4065693mm"
   viewBox="0 0 29.321587 0.054018575"
   version="1.1"
   id="svg1"
   xmlns="http://www.w3.org/2000/svg"
   xmlns:svg="http://www.w3.org/2000/svg">
  <defs
     id="defs1">
    <filter
       style="color-interpolation-filters:sRGB"
       id="filter20"
       x="0"
       y="0"
       width="1"
       height="1">
      <feTurbulence
         type="fractalNoise"
         baseFrequency="27.8638 14.5511"
         numOctaves="2"
         seed="1"
         result="turbulence"
         id="feTurbulence19" />
      <feComposite
         in="SourceGraphic"
         in2="turbulence"
         operator="in"
         result="composite1"
         id="feComposite19" />
      <feColorMatrix
         values="1 0 0 0 0 0 1 0 0 0 0 0 1 0 0 0 0 0 3.67273 -0.151515 "
         result="color"
         id="feColorMatrix19" />
      <feFlood
         flood-opacity="1"
         flood-color="rgb(97,38,102)"
         result="flood"
         id="feFlood19" />
      <feMerge
         result="merge"
         id="feMerge20">
        <feMergeNode
           in="flood"
           id="feMergeNode19" />
        <feMergeNode
           in="color"
           id="feMergeNode20" />
      </feMerge>
      <feComposite
         in2="SourceGraphic"
         operator="in"
         result="composite2"
         id="feComposite20" />
    </filter>
  </defs>
  <g
     id="layer1"
     transform="translate(-0.01333611,-0.03629644)"
     style="filter:url(#filter20)">
    <path
       style="display:inline;fill:#b454e8;fill-opacity:1;stroke-width:7.18777;stroke-linecap:round;stroke-linejoin:round;stroke-dasharray:none;stroke-opacity:0.497423"
       id="path301"
       d="m 5.032135,6.6073205 c 3.7636446,3.1860951 2.5495286,2.6887561 8.291731,3.3965395 5.682476,0.70042 4.393704,0.882058 9.244748,-1.1510474 0.08557,-0.03586 0.224614,-0.09392 0.310564,-0.1296621 4.860025,-2.021342 4.004325,-1.307742 5.953991,-5.194574 0.0074,-0.01483 0.01485,-0.02959 0.02223,-0.04428 1.775306,-3.53241196 -1.623291,-10.135775 -6.174897,-11.99761 -0.0188,-0.0077 -0.03768,-0.01542 -0.05665,-0.02319 -1.998433,-0.818617 -2.992096,-1.287271 -3.816661,-1.5089645 -2.904808,-0.780994 -8.670704,-0.03527 -11.0106559,1.4244295 -0.6641362,0.414298 -1.3662134,1.102282 -2.8384578,2.369662 -3.7268196,3.208229 -3.2538889,2.265399 -3.2298525,6.43899804 0,0 0,0 0,0 -5.275312,0 3.3039058,6.41969096 3.3039058,6.41969096 z" />
  </g>
</svg>
