<?xml version="1.0" encoding="UTF-8" standalone="no"?>
<!-- Created with Inkscape (http://www.inkscape.org/) -->

<svg
   width="605.67456mm"
   height="420.58591mm"
   viewBox="0 0 4.5783299 16.776872"
   version="1.1"
   id="svg1"
   xmlns="http://www.w3.org/2000/svg"
   xmlns:svg="http://www.w3.org/2000/svg">
  <defs
     id="defs1">
    <filter
       style="color-interpolation-filters:sRGB"
       id="filter58"
       x="-0.070760253"
       y="-0.064053979"
       width="1.1294023"
       height="1.1034665">
      <feTurbulence
         type="fractalNoise"
         baseFrequency="9.59752 9.90712"
         numOctaves="1"
         seed="1"
         result="turbulence"
         id="feTurbulence57" />
      <feComposite
         in="SourceGraphic"
         in2="turbulence"
         operator="in"
         result="composite1"
         id="feComposite57" />
      <feColorMatrix
         values="1 0 0 0 0 0 1 0 0 0 0 0 1 0 0 0 0 0 3.82121 -0.1 "
         result="color"
         id="feColorMatrix57" />
      <feFlood
         flood-opacity="1"
         flood-color="rgb(200,105,116)"
         result="flood"
         id="feFlood57" />
      <feMerge
         result="merge"
         id="feMerge58">
        <feMergeNode
           in="flood"
           id="feMergeNode57" />
        <feMergeNode
           in="color"
           id="feMergeNode58" />
      </feMerge>
      <feComposite
         in2="SourceGraphic"
         operator="in"
         result="composite2"
         id="feComposite58" />
    </filter>
    <filter
       style="color-interpolation-filters:sRGB"
       id="filter18"
       x="0"
       y="0"
       width="1"
       height="1">
      <feTurbulence
         type="fractalNoise"
         baseFrequency="6.81115 4.64396"
         numOctaves="2"
         seed="1"
         result="turbulence"
         id="feTurbulence17" />
      <feComposite
         in="SourceGraphic"
         in2="turbulence"
         operator="in"
         result="composite1"
         id="feComposite17" />
      <feColorMatrix
         values="1 0 0 0 0 0 1 0 0 0 0 0 1 0 0 0 0 0 3.67273 -0.151515 "
         result="color"
         id="feColorMatrix17" />
      <feFlood
         flood-opacity="1"
         flood-color="rgb(186,165,69)"
         result="flood"
         id="feFlood17" />
      <feMerge
         result="merge"
         id="feMerge18">
        <feMergeNode
           in="flood"
           id="feMergeNode17" />
        <feMergeNode
           in="color"
           id="feMergeNode18" />
      </feMerge>
      <feComposite
         in2="SourceGraphic"
         operator="in"
         result="composite2"
         id="feComposite18" />
    </filter>
    <filter
       style="color-interpolation-filters:sRGB"
       id="filter20"
       x="0"
       y="0"
       width="1"
       height="1">
      <feTurbulence
         type="fractalNoise"
         baseFrequency="27.8638 14.5511"
         numOctaves="2"
         seed="1"
         result="turbulence"
         id="feTurbulence19" />
      <feComposite
         in="SourceGraphic"
         in2="turbulence"
         operator="in"
         result="composite1"
         id="feComposite19" />
      <feColorMatrix
         values="1 0 0 0 0 0 1 0 0 0 0 0 1 0 0 0 0 0 3.67273 -0.151515 "
         result="color"
         id="feColorMatrix19" />
      <feFlood
         flood-opacity="1"
         flood-color="rgb(97,38,102)"
         result="flood"
         id="feFlood19" />
      <feMerge
         result="merge"
         id="feMerge20">
        <feMergeNode
           in="flood"
           id="feMergeNode19" />
        <feMergeNode
           in="color"
           id="feMergeNode20" />
      </feMerge>
      <feComposite
         in2="SourceGraphic"
         operator="in"
         result="composite2"
         id="feComposite20" />
    </filter>
  </defs>
  <g
     id="layer1"
     transform="translate(-134.91211,-151.37803)"
     style="filter:url(#filter58)">
    <path
       style="display:inline;fill:#b454e8;fill-opacity:1;stroke-width:7.18777;stroke-linecap:round;stroke-linejoin:round;stroke-dasharray:none;stroke-opacity:0.497423;filter:url(#filter20)"
       id="path301"
       d="m 5.0187989,8.8797648 c 3.7636446,3.1860952 2.5495286,2.6887562 8.2917311,3.3965402 5.682476,0.70042 4.393704,0.882058 9.244748,-1.151048 0.08557,-0.03586 0.224614,-0.09392 0.310564,-0.129662 4.860025,-2.0213422 4.004325,-1.3077422 5.953991,-5.1945742 0.0074,-0.01483 0.01485,-0.02959 0.02223,-0.04428 1.775306,-3.5324119 -1.623291,-10.135775 -6.174897,-11.99761 -0.0188,-0.0077 -0.03768,-0.01542 -0.05665,-0.02319 -1.998433,-0.818617 -2.992096,-1.287271 -3.816661,-1.5089645 -2.904808,-0.780994 -8.670704,-0.03527 -11.010656,1.4244295 -0.6641362,0.414298 -1.3662134,1.102282 -2.8384578,2.369662 -3.7268196,3.20822904 -3.2538889,2.265399 -3.2298525,6.4389981 0,0 0,0 0,0 -5.275312,0 3.3039058,6.4196909 3.3039058,6.4196909 z"
       transform="matrix(0.7295574,0,0,0.66001019,127.75679,158.4299)" />
    <path
       d="m 31.113747,1.5214 c 1.34106,1.67396 2.52902,4.21767 1.20295,6.23588 -1.32608,2.01823 -7.07816,0.34913 -10.91267,1.98425 -2.83697,1.20973 -1.48949,3.24468 -2.39386,4.68616 -1.54933,2.46947 -1.93089,1.21055 -1.93089,1.21055 l -3.10761,-0.22747 c 0,0 -11.286535,1.72538 -13.733465,0.14172 -2.035655,-1.31748 -1.436785,-7.77431 0.80197,-7.79509 3.73936,-0.0347 13.334805,0.70599 14.335365,-0.85038 1.00057,-1.55638 0.64643,-3.79697 1.90467,-5.24391 1.25824,-1.44693 11.69565,-2.81033 13.83354,-0.14171 z"
       style="display:inline;fill:#e8c054;fill-opacity:1;stroke-width:15.8741;stroke-linecap:round;stroke-linejoin:round;stroke-opacity:0.497423;filter:url(#filter18)"
       id="path302"
       transform="matrix(0.62467907,-0.18846291,0.18384564,0.64036783,126.87167,157.57761)" />
  </g>
</svg>
