{
	"asset":{
		"generator":"Khronos glTF Blender I/O v3.5.30",
		"version":"2.0"
	},
	"extensionsUsed":[
		"KHR_materials_specular",
		"KHR_materials_ior"
	],
	"scene":0,
	"scenes":[
		{
			"name":"Scene",
			"nodes":[
				0,
				1,
				2
			]
		}
	],
	"nodes":[
		{
			"mesh":0,
			"name":"D",
			"rotation":[
				0.7071068286895752,
				0,
				0,
				0.7071068286895752
			],
			"scale":[
				4.549088001251221,
				4.549088001251221,
				4.549088001251221
			],
			"translation":[
				1.0470876693725586,
				-1.340000033378601,
				0.8525923490524292
			]
		},
		{
			"mesh":1,
			"name":"O",
			"rotation":[
				0.3535534143447876,
				0.6123724579811096,
				-0.6123725175857544,
				0.3535534143447876
			],
			"scale":[
				4.549088001251221,
				4.549088001251221,
				4.549088001251221
			],
			"translation":[
				0.5836901068687439,
				-1.340000033378601,
				-0.15003585815429688
			]
		},
		{
			"mesh":2,
			"name":"\u2229",
			"rotation":[
				0.6123724579811096,
				0.3535533547401428,
				-0.3535533845424652,
				0.6123725175857544
			],
			"scale":[
				4.549088001251221,
				4.549088001251221,
				4.549088001251221
			],
			"translation":[
				-0.05291229486465454,
				-1.340000033378601,
				-1.0526636838912964
			]
		}
	],
	"materials":[
		{
			"doubleSided":true,
			"extensions":{
				"KHR_materials_specular":{
					"specularColorFactor":[
						0.711407312601205,
						0.711407312601205,
						0.711407312601205
					]
				},
				"KHR_materials_ior":{
					"ior":1.4500000476837158
				}
			},
			"name":"O.002",
			"pbrMetallicRoughness":{
				"baseColorFactor":[
					0.2753152847290039,
					0.19118732213974,
					0.8000000715255737,
					1
				],
				"roughnessFactor":0.5
			}
		},
		{
			"doubleSided":true,
			"emissiveFactor":[
				0.023649675771594048,
				0.023649675771594048,
				0.023649675771594048
			],
			"extensions":{
				"KHR_materials_specular":{
					"specularColorFactor":[
						0.711407312601205,
						0.711407312601205,
						0.711407312601205
					]
				},
				"KHR_materials_ior":{
					"ior":1.4500000476837158
				}
			},
			"name":"D",
			"pbrMetallicRoughness":{
				"baseColorFactor":[
					0.1354769617319107,
					0.8000000715255737,
					0.6473668813705444,
					1
				],
				"roughnessFactor":0.5
			}
		},
		{
			"doubleSided":true,
			"emissiveFactor":[
				0.01738651655614376,
				0.01738651655614376,
				0.01738651655614376
			],
			"extensions":{
				"KHR_materials_specular":{
					"specularColorFactor":[
						0.711407312601205,
						0.711407312601205,
						0.711407312601205
					]
				},
				"KHR_materials_ior":{
					"ior":1.4500000476837158
				}
			},
			"name":"O.001",
			"pbrMetallicRoughness":{
				"baseColorFactor":[
					0.8000000715255737,
					0.21766917407512665,
					0.6563220620155334,
					1
				],
				"roughnessFactor":0.5
			}
		}
	],
	"meshes":[
		{
			"name":"D",
			"primitives":[
				{
					"attributes":{
						"POSITION":0,
						"TEXCOORD_0":1,
						"NORMAL":2
					},
					"indices":3,
					"material":0
				}
			]
		},
		{
			"name":"D.001",
			"primitives":[
				{
					"attributes":{
						"POSITION":4,
						"TEXCOORD_0":5,
						"NORMAL":6
					},
					"indices":7,
					"material":1
				}
			]
		},
		{
			"name":"D.002",
			"primitives":[
				{
					"attributes":{
						"POSITION":8,
						"TEXCOORD_0":9,
						"NORMAL":10
					},
					"indices":11,
					"material":2
				}
			]
		}
	],
	"accessors":[
		{
			"bufferView":0,
			"componentType":5126,
			"count":756,
			"max":[
				-0.03565219044685364,
				0.009999999776482582,
				0
			],
			"min":[
				-0.42260870337486267,
				-0.009999999776482582,
				-0.5878260731697083
			],
			"type":"VEC3"
		},
		{
			"bufferView":1,
			"componentType":5126,
			"count":756,
			"type":"VEC2"
		},
		{
			"bufferView":2,
			"componentType":5126,
			"count":756,
			"type":"VEC3"
		},
		{
			"bufferView":3,
			"componentType":5123,
			"count":2256,
			"type":"SCALAR"
		},
		{
			"bufferView":4,
			"componentType":5126,
			"count":948,
			"max":[
				0.19869564473628998,
				0.009999999776482582,
				0
			],
			"min":[
				-0.19869565963745117,
				-0.009999999776482582,
				-0.5878260731697083
			],
			"type":"VEC3"
		},
		{
			"bufferView":5,
			"componentType":5126,
			"count":948,
			"type":"VEC2"
		},
		{
			"bufferView":6,
			"componentType":5126,
			"count":948,
			"type":"VEC3"
		},
		{
			"bufferView":7,
			"componentType":5123,
			"count":2832,
			"type":"SCALAR"
		},
		{
			"bufferView":8,
			"componentType":5126,
			"count":802,
			"max":[
				-0.03565219044685364,
				0.009999999776482582,
				0
			],
			"min":[
				-0.4217391610145569,
				-0.009999999776482582,
				-0.5878260731697083
			],
			"type":"VEC3"
		},
		{
			"bufferView":9,
			"componentType":5126,
			"count":802,
			"type":"VEC2"
		},
		{
			"bufferView":10,
			"componentType":5126,
			"count":802,
			"type":"VEC3"
		},
		{
			"bufferView":11,
			"componentType":5123,
			"count":2388,
			"type":"SCALAR"
		}
	],
	"bufferViews":[
		{
			"buffer":0,
			"byteLength":9072,
			"byteOffset":0,
			"target":34962
		},
		{
			"buffer":0,
			"byteLength":6048,
			"byteOffset":9072,
			"target":34962
		},
		{
			"buffer":0,
			"byteLength":9072,
			"byteOffset":15120,
			"target":34962
		},
		{
			"buffer":0,
			"byteLength":4512,
			"byteOffset":24192,
			"target":34963
		},
		{
			"buffer":0,
			"byteLength":11376,
			"byteOffset":28704,
			"target":34962
		},
		{
			"buffer":0,
			"byteLength":7584,
			"byteOffset":40080,
			"target":34962
		},
		{
			"buffer":0,
			"byteLength":11376,
			"byteOffset":47664,
			"target":34962
		},
		{
			"buffer":0,
			"byteLength":5664,
			"byteOffset":59040,
			"target":34963
		},
		{
			"buffer":0,
			"byteLength":9624,
			"byteOffset":64704,
			"target":34962
		},
		{
			"buffer":0,
			"byteLength":6416,
			"byteOffset":74328,
			"target":34962
		},
		{
			"buffer":0,
			"byteLength":9624,
			"byteOffset":80744,
			"target":34962
		},
		{
			"buffer":0,
			"byteLength":4776,
			"byteOffset":90368,
			"target":34963
		}
	],
	"buffers":[
		{
			"byteLength":95144,
			"uri":"data:application/octet-stream;base64,"
		}
	]
}
