<?xml version="1.0" encoding="UTF-8" standalone="no"?>
<!-- Created with Inkscape (http://www.inkscape.org/) -->

<svg
   width="36.512489mm"
   height="36.512501mm"
   viewBox="0 0 36.512489 36.512501"
   version="1.1"
   id="svg1"
   inkscape:export-filename="redditGlyph.svg"
   inkscape:export-xdpi="96"
   inkscape:export-ydpi="96"
   xmlns:inkscape="http://www.inkscape.org/namespaces/inkscape"
   xmlns:sodipodi="http://sodipodi.sourceforge.net/DTD/sodipodi-0.dtd"
   xmlns="http://www.w3.org/2000/svg"
   xmlns:svg="http://www.w3.org/2000/svg">
  <sodipodi:namedview
     id="namedview1"
     pagecolor="#ffffff"
     bordercolor="#000000"
     borderopacity="0.25"
     inkscape:showpageshadow="2"
     inkscape:pageopacity="0.0"
     inkscape:pagecheckerboard="0"
     inkscape:deskcolor="#d1d1d1"
     inkscape:document-units="mm" />
  <defs
     id="defs1" />
  <g
     inkscape:label="Ebene 1"
     inkscape:groupmode="layer"
     id="layer1"
     transform="translate(-54.132848,-32.336505)">
    <rect
       style="fill:none;stroke:#ffffff;stroke-width:2.64583;stroke-linejoin:round;stroke-miterlimit:19.6;stroke-dasharray:none;stroke-opacity:1"
       id="rect2"
       width="33.866665"
       height="33.866665"
       x="55.455761"
       y="33.65942"
       ry="11.157027" />
    <path
       d="m 61.985916,47.826085 c -0.244719,6.8e-5 -0.487906,0.03865 -0.720628,0.114341 -0.232703,0.0756 -0.452064,0.187361 -0.650025,0.331161 -0.198052,0.143881 -0.37222,0.318049 -0.516102,0.516102 -0.1438,0.19796 -0.255554,0.417321 -0.33116,0.650024 -0.07568,0.232722 -0.114271,0.475909 -0.114329,0.720628 6.7e-5,0.24472 0.03865,0.487907 0.114329,0.720629 0.07556,0.232863 0.187318,0.452379 0.33116,0.65048 0.143919,0.197891 0.318085,0.371902 0.516102,0.515646 0.197932,0.14396 0.417292,0.25587 0.650025,0.331617 0.07752,0.01627 0.155818,0.02859 0.234592,0.0369 -0.127787,0.196355 -0.24072,0.396078 -0.33845,0.59855 -0.13183,0.294901 -0.231347,0.59467 -0.29791,0.89737 -0.06643,0.302803 -0.09976,0.607898 -0.09976,0.913312 -5e-6,0.305416 0.03332,0.610512 0.09976,0.913313 0.06653,0.302854 0.166047,0.602776 0.29791,0.897826 0.131697,0.294903 0.295429,0.584325 0.490135,0.866395 0.194774,0.282153 0.420135,0.556358 0.674624,0.820843 0.254572,0.264553 0.537755,0.518823 0.847716,0.76117 0.309886,0.242197 0.645871,0.471969 1.005784,0.68783 0.359815,0.215984 0.742819,0.417606 1.146538,0.603562 0.403776,0.185874 0.827409,0.355692 1.268162,0.508358 0.440898,0.152762 0.898009,0.288039 1.368375,0.404956 0.470259,0.116897 0.95278,0.215197 1.444446,0.294263 0.491608,0.07903 0.991325,0.138694 1.495921,0.178564 0.504577,0.03979 1.012967,0.05973 1.521884,0.05967 0.50907,6.8e-5 1.017613,-0.01987 1.52234,-0.05967 0.504596,-0.03987 1.004313,-0.09952 1.495922,-0.178564 0.491665,-0.07907 0.974186,-0.177366 1.444445,-0.294263 0.470211,-0.116927 0.927168,-0.252204 1.367919,-0.404956 0.440909,-0.152656 0.864695,-0.322475 1.268618,-0.508358 0.403719,-0.185956 0.786723,-0.387578 1.146538,-0.603562 0.359912,-0.215861 0.695898,-0.445633 1.005784,-0.68783 0.30996,-0.242347 0.593144,-0.496617 0.847717,-0.76117 0.254489,-0.264485 0.479848,-0.53869 0.674621,-0.820843 0.194709,-0.28207 0.358441,-0.571492 0.490138,-0.866395 0.131708,-0.295056 0.231072,-0.594977 0.297453,-0.897826 0.06643,-0.302801 0.09976,-0.607897 0.09976,-0.913313 4.3e-5,-0.107691 -0.004,-0.215379 -0.0123,-0.322961 -0.0083,-0.107656 -0.02076,-0.215193 -0.03736,-0.322507 -0.01652,-0.107319 -0.03718,-0.214395 -0.06195,-0.32114 -0.02474,-0.106666 -0.05361,-0.21299 -0.08656,-0.318863 -0.03313,-0.106026 -0.07035,-0.211588 -0.111604,-0.316583 -0.04109,-0.104769 -0.0862,-0.208963 -0.135288,-0.312486 -0.04916,-0.103674 -0.102335,-0.206645 -0.15943,-0.308842 -0.03476,-0.06042 -0.07091,-0.120555 -0.108414,-0.180384 0.08988,-0.009 0.179155,-0.02308 0.267388,-0.04236 0.232732,-0.07575 0.452091,-0.187655 0.650023,-0.331618 0.198019,-0.143743 0.372184,-0.317754 0.516102,-0.515645 0.143843,-0.198101 0.2556,-0.417617 0.331163,-0.650479 0.07568,-0.232723 0.114271,-0.475909 0.114329,-0.72063 5e-6,-0.08141 -0.0042,-0.162746 -0.01275,-0.243701 -0.0085,-0.08093 -0.02131,-0.161369 -0.03826,-0.24097 -0.01697,-0.07971 -0.0381,-0.158465 -0.06331,-0.235958 -0.02516,-0.07739 -0.05436,-0.153417 -0.08745,-0.227758 -0.03306,-0.07446 -0.07002,-0.147142 -0.110695,-0.217738 -0.04075,-0.07045 -0.08514,-0.138719 -0.133012,-0.204527 -0.04781,-0.06594 -0.09906,-0.129359 -0.153509,-0.189952 -0.0545,-0.06052 -0.112117,-0.118147 -0.172641,-0.172641 -0.06059,-0.05445 -0.123997,-0.105689 -0.189951,-0.153508 -0.06582,-0.04787 -0.134078,-0.09227 -0.204528,-0.133013 -0.0706,-0.04066 -0.143274,-0.07761 -0.217738,-0.110684 -0.07435,-0.03311 -0.150364,-0.06231 -0.227758,-0.08745 -0.0775,-0.02521 -0.156254,-0.04635 -0.235959,-0.06331 -0.07959,-0.01694 -0.160033,-0.02973 -0.240968,-0.03827 -0.08096,-0.0084 -0.162302,-0.01276 -0.243703,-0.01275 -0.244872,2e-5 -0.488215,0.0386 -0.721085,0.114341 -0.232703,0.0756 -0.452061,0.187359 -0.650022,0.331161 -0.198054,0.143881 -0.37222,0.318048 -0.516101,0.516102 -0.143802,0.19796 -0.255555,0.417318 -0.331163,0.650023 -0.03463,0.136949 -0.05673,0.276761 -0.06605,0.417709 -0.11575,-0.0692 -0.233904,-0.136937 -0.354394,-0.20316 -0.132695,-0.07263 -0.268175,-0.143402 -0.40632,-0.212272 -0.138164,-0.06875 -0.27896,-0.135577 -0.422266,-0.200427 -0.143317,-0.06503 -0.289124,-0.128057 -0.437297,-0.18904 -0.148188,-0.06083 -0.298705,-0.119618 -0.451418,-0.176286 -0.152598,-0.0568 -0.307366,-0.111476 -0.464173,-0.163986 -0.157015,-0.05246 -0.316037,-0.102731 -0.476926,-0.150776 -0.160687,-0.04794 -0.323201,-0.09366 -0.487404,-0.13711 -0.164347,-0.0436 -0.330354,-0.08491 -0.49788,-0.123902 -0.167415,-0.03893 -0.336306,-0.07553 -0.506536,-0.109776 -0.170328,-0.03427 -0.341954,-0.06615 -0.514736,-0.09566 -0.17264,-0.02943 -0.346392,-0.05647 -0.521111,-0.08107 -0.174952,-0.02461 -0.350832,-0.04678 -0.527491,-0.0665 -0.176499,-0.01991 -0.353745,-0.03738 -0.531588,-0.05239 -0.177762,-0.01477 -0.356071,-0.02707 -0.534778,-0.0369 -0.178859,-0.0099 -0.35808,-0.01736 -0.537511,-0.02232 -0.179501,-0.0051 -0.359179,-0.0077 -0.538879,-0.0077 -0.508933,9.5e-5 -1.017322,0.02018 -1.521883,0.06012 -0.504597,0.03986 -1.004313,0.09952 -1.49592,0.178563 -0.491649,0.07892 -0.974169,0.177066 -1.444447,0.293808 -0.470366,0.116917 -0.927478,0.252194 -1.368375,0.404956 -0.440753,0.152665 -0.864387,0.322484 -1.268162,0.508358 -0.363068,0.169478 -0.709112,0.351703 -1.036302,0.54571 -0.0061,-0.04821 -0.01368,-0.09621 -0.02278,-0.143944 -0.01682,-0.0797 -0.0378,-0.158458 -0.06286,-0.235958 -0.02517,-0.07739 -0.05436,-0.153417 -0.08745,-0.227759 -0.03322,-0.07448 -0.07031,-0.147152 -0.11115,-0.217737 -0.04073,-0.07045 -0.08513,-0.138719 -0.13301,-0.204528 -0.04783,-0.06594 -0.09906,-0.129359 -0.153511,-0.189951 -0.0545,-0.06052 -0.112116,-0.118147 -0.17264,-0.172641 -0.06045,-0.05444 -0.123697,-0.105676 -0.189495,-0.153509 -0.06594,-0.04789 -0.134379,-0.09228 -0.204984,-0.133012 -0.07045,-0.04066 -0.142974,-0.07761 -0.217282,-0.110695 -0.07449,-0.03312 -0.150667,-0.06231 -0.228214,-0.08745 -0.07734,-0.0252 -0.155953,-0.04632 -0.235503,-0.06331 -0.07959,-0.01694 -0.160034,-0.02973 -0.240969,-0.03828 -0.08111,-0.0085 -0.162605,-0.01277 -0.244157,-0.01276 z"
       style="fill:none;stroke:#ffffff;stroke-width:2.46482;stroke-linejoin:round;stroke-miterlimit:19.6;stroke-dasharray:none;stroke-opacity:1"
       id="path6" />
    <circle
       style="fill:#ffffff;fill-opacity:1;stroke:#ffffff;stroke-width:2.46482;stroke-linejoin:round;stroke-miterlimit:19.6;stroke-dasharray:none;stroke-opacity:1"
       id="path7"
       cx="67.90358"
       cy="52.991287"
       r="1.1661254" />
    <circle
       style="fill:#ffffff;fill-opacity:1;stroke:#ffffff;stroke-width:2.46482;stroke-linejoin:round;stroke-miterlimit:19.6;stroke-dasharray:none;stroke-opacity:1"
       id="path7-8"
       cx="79.767799"
       cy="41.298626"
       r="1.1661254" />
    <circle
       style="fill:#ffffff;fill-opacity:1;stroke:#ffffff;stroke-width:2.46482;stroke-linejoin:round;stroke-miterlimit:19.6;stroke-dasharray:none;stroke-opacity:1"
       id="circle7"
       cx="77.202545"
       cy="52.991287"
       r="1.1661254" />
    <path
       d="m 77.450728,57.371088 a 6.3248348,1.7540932 0 0 1 -0.397667,0.125661 6.3248348,1.7540932 0 0 1 -0.621968,0.151328 6.3248348,1.7540932 0 0 1 -0.687856,0.127451 6.3248348,1.7540932 0 0 1 -0.742063,0.101485 6.3248348,1.7540932 0 0 1 -0.783653,0.07373 6.3248348,1.7540932 0 0 1 -0.811222,0.04477 6.3248348,1.7540932 0 0 1 -0.825706,0.01522 6.3248348,1.7540932 0 0 1 -0.82571,-0.01522 6.3248348,1.7540932 0 0 1 -0.811221,-0.04477 6.3248348,1.7540932 0 0 1 -0.783652,-0.07373 6.3248348,1.7540932 0 0 1 -0.741596,-0.101485 6.3248348,1.7540932 0 0 1 -0.687855,-0.127451 6.3248348,1.7540932 0 0 1 -0.622436,-0.151328 6.3248348,1.7540932 0 0 1 -0.545331,-0.172222 6.3248348,1.7540932 0 0 1 -0.07617,-0.03164 5.0009407,1.1263128 0 0 0 -0.03457,0.108343 5.0009407,1.1263128 0 0 0 0.05093,0.160284 5.0009407,1.1263128 0 0 0 0.15187,0.156999 5.0009407,1.1263128 0 0 0 0.249069,0.150732 5.0009407,1.1263128 0 0 0 0.342057,0.140883 5.0009407,1.1263128 0 0 0 0.427574,0.128645 5.0009407,1.1263128 0 0 0 0.504678,0.113723 5.0009407,1.1263128 0 0 0 0.571034,0.09641 5.0009407,1.1263128 0 0 0 0.626173,0.07701 5.0009407,1.1263128 0 0 0 0.668697,0.05612 5.0009407,1.1263128 0 0 0 0.697202,0.03403 5.0009407,1.1263128 0 0 0 0.711689,0.01165 5.0009407,1.1263128 0 0 0 0.71169,-0.01165 5.0009407,1.1263128 0 0 0 0.697202,-0.03403 5.0009407,1.1263128 0 0 0 0.668697,-0.05612 5.0009407,1.1263128 0 0 0 0.626175,-0.07701 5.0009407,1.1263128 0 0 0 0.571032,-0.09641 5.0009407,1.1263128 0 0 0 0.504677,-0.113723 5.0009407,1.1263128 0 0 0 0.427574,-0.128645 5.0009407,1.1263128 0 0 0 0.34206,-0.140883 5.0009407,1.1263128 0 0 0 0.249066,-0.150732 5.0009407,1.1263128 0 0 0 0.151872,-0.156999 5.0009407,1.1263128 0 0 0 0.05093,-0.160284 5.0009407,1.1263128 0 0 0 -0.0033,-0.03015 z"
       style="fill:none;stroke:#ffffff;stroke-width:2.46482;stroke-linejoin:round;stroke-miterlimit:19.6;stroke-dasharray:none;stroke-opacity:1"
       id="path10" />
    <path
       style="fill:none;fill-opacity:1;stroke:#ffffff;stroke-width:2.46482;stroke-linecap:round;stroke-linejoin:round;stroke-miterlimit:19.6;stroke-dasharray:none;stroke-opacity:1"
       d="m 72.425005,47.826068 1.283393,-7.79698"
       id="path11" />
    <path
       style="fill:none;fill-opacity:1;stroke:#ffffff;stroke-width:2.46482;stroke-linecap:round;stroke-linejoin:round;stroke-miterlimit:19.6;stroke-dasharray:none;stroke-opacity:1"
       d="M 79.068351,40.987164 73.708398,40.029088"
       id="path12" />
  </g>
</svg>
